<svg width="74" height="75" viewBox="0 0 74 75" fill="none" xmlns="http://www.w3.org/2000/svg">
<g clip-path="url(#clip0_15_323)">
<path d="M73.9992 37.5001C73.9992 57.9353 57.4325 74.4996 36.9996 74.4996C16.5666 74.4996 0 57.933 0 37.5001C0 17.0671 16.5643 0.500488 36.9996 0.500488C57.4349 0.500488 73.9992 17.0648 73.9992 37.5001Z" fill="#712B86"/>
<path d="M17.6957 26.1325C19.2251 26.1325 20.47 24.8877 20.47 23.356C20.47 21.8243 19.2251 20.5818 17.6957 20.5818C16.1663 20.5818 14.9169 21.8266 14.9169 23.356C14.9169 24.8854 16.1617 26.1325 17.6957 26.1325Z" fill="white"/>
<path d="M59.0822 23.4486C59.0776 21.9191 57.8328 20.6767 56.3057 20.6767C54.7786 20.6767 53.5315 21.9215 53.5269 23.4555V41.0286L53.5199 44.3026C53.5199 45.8066 53.1058 46.5678 52.289 46.5678C51.7545 46.5678 51.2409 46.2624 51.2385 46.2601L24.5144 29.742C24.4358 29.6911 22.5385 28.4833 20.3196 28.4833C19.4102 28.4833 18.5727 28.6893 17.8323 29.0988C14.7989 30.7717 14.9123 33.9716 14.9192 34.0965V50.5151C14.9215 52.0445 16.1663 53.2847 17.6957 53.2847C19.2251 53.2847 20.4676 52.0422 20.4723 50.5058V40.4571L20.4769 37.4608C20.4769 35.9568 20.8911 35.1956 21.7078 35.1956C22.2423 35.1956 22.7606 35.5033 22.7606 35.5033L49.4847 52.0237C49.5634 52.0746 51.463 53.2824 53.6773 53.2824C54.5889 53.2824 55.4242 53.0765 56.1669 52.6669C59.2002 50.9964 59.0846 47.7941 59.0799 47.6738V23.4486H59.0822Z" fill="white"/>
</g>
<defs>
<clipPath id="clip0_15_323">
<rect width="73.9992" height="73.9992" fill="white" transform="translate(0 0.500488)"/>
</clipPath>
</defs>
</svg>
