<svg width="237" height="75" viewBox="0 0 237 75" fill="none" xmlns="http://www.w3.org/2000/svg">
<g clip-path="url(#clip0_1_164)">
<path d="M5.0047 20.6513C5.0047 22.0326 3.88483 23.1548 2.5035 23.1548C1.12218 23.1548 0 22.0349 0 20.6513C0 19.2676 1.12218 18.1501 2.5035 18.1501C3.88483 18.1501 5.0047 19.27 5.0047 20.6513Z" fill="#712B86"/>
<path d="M5.0047 27.1507C5.00238 25.7717 3.88251 24.6541 2.5035 24.6541C1.12449 24.6541 0.00231378 25.7717 0 27.1507V46.7738C0 48.1551 1.12218 49.2704 2.50119 49.2704C3.8802 49.2704 4.99775 48.1551 5.00238 46.7738V27.1507H5.0047Z" fill="#712B86"/>
<path d="M49.9799 40.5405C49.9799 44.4045 47.245 42.7501 47.245 42.7501L20.4052 26.1557C20.4052 26.1557 16.9137 23.9044 13.9845 25.5171C11.0575 27.1322 11.2079 30.2835 11.2079 30.2835V46.7738C11.2079 48.1551 12.3301 49.2704 13.7091 49.2704C15.0881 49.2704 16.208 48.1551 16.2103 46.7738V36.6742L16.2149 33.6663C16.2149 29.7999 18.9475 31.4589 18.9475 31.4589L45.7919 48.051C45.7919 48.051 49.2811 50.3046 52.208 48.6896C55.135 47.0769 54.9869 43.9255 54.9869 43.9255V27.1507C54.9846 25.7717 53.8647 24.6541 52.4857 24.6541C51.1067 24.6541 49.9845 25.7717 49.9845 27.1507V37.2503L49.9775 40.5382L49.9799 40.5405Z" fill="#712B86"/>
<path d="M62.2174 12.0439H60.0564V48.2406H62.2174V12.0439Z" fill="#333333"/>
<path d="M116.186 43.9555C115.649 44.6797 115.076 45.3113 114.467 45.8435C113.35 46.8199 112.077 47.5742 110.682 48.0833C109.287 48.5923 107.678 48.8537 105.904 48.8537C101.987 48.8537 98.8884 47.6205 96.688 45.191C94.4761 42.7407 93.3516 39.9364 93.3516 36.8522C93.3516 33.9507 94.3025 31.3292 96.1744 29.0594C98.5391 26.1811 101.748 24.7234 105.719 24.7234C109.689 24.7234 113.125 26.2204 115.564 29.1681C117.218 31.1534 117.984 33.1848 118.102 35.6629H95.7394L95.7163 37.0396C95.7787 39.9064 96.7598 42.2942 98.6316 44.1406C100.51 45.9916 102.864 46.9264 105.624 46.9264C106.947 46.9264 108.255 46.7066 109.506 46.2669C110.758 45.8296 111.843 45.2373 112.725 44.5061C113.204 44.1105 113.704 43.5853 114.222 42.9305L116.184 43.9508L116.186 43.9555ZM115.404 33.5389C114.971 32.183 114.381 31.0562 113.653 30.1862C112.787 29.1589 111.635 28.3213 110.224 27.6966C108.817 27.0719 107.315 26.7572 105.765 26.7572C103.201 26.7572 100.964 27.5531 99.1198 29.1265C97.912 30.1515 96.9588 31.6462 96.2854 33.5666L115.406 33.5389H115.404Z" fill="#333333"/>
<path d="M89.1636 43.9555C88.6292 44.6797 88.0553 45.3113 87.4468 45.8435C86.3293 46.8199 85.0567 47.5742 83.6638 48.0833C82.2663 48.5923 80.6582 48.8537 78.8859 48.8537C74.9663 48.8537 71.8659 47.6205 69.6701 45.191C67.4558 42.7407 66.3313 39.9364 66.3313 36.8522C66.3313 33.9507 67.2823 31.3292 69.1541 29.0594C71.5188 26.1811 74.7303 24.7234 78.7008 24.7234C82.6712 24.7234 86.1048 26.2204 88.5459 29.1681C90.1979 31.1534 90.9638 33.1848 91.0818 35.6629H68.7214L68.696 37.0396C68.7608 39.9064 69.7395 42.2942 71.616 44.1406C73.4948 45.9916 75.8479 46.9264 78.6082 46.9264C79.9317 46.9264 81.2367 46.7066 82.4884 46.2669C83.7425 45.8296 84.823 45.2373 85.7092 44.5061C86.1835 44.1105 86.6856 43.5853 87.2039 42.9305L89.1636 43.9508V43.9555ZM88.3839 33.5389C87.9512 32.183 87.3635 31.0562 86.6301 30.1862C85.767 29.1589 84.6124 28.3213 83.201 27.6966C81.7943 27.0719 80.2949 26.7572 78.7447 26.7572C76.181 26.7572 73.9436 27.5531 72.0995 29.1265C70.8894 30.1515 69.9385 31.6462 69.2629 33.5666L88.3862 33.5389H88.3839Z" fill="#333333"/>
<path d="M133.294 48.8537C129.944 48.8537 127.045 47.6645 124.673 45.3229C122.297 42.9814 121.094 40.0868 121.094 36.7249C121.094 33.363 122.308 30.5842 124.706 28.2473C127.1 25.9103 130.018 24.7257 133.385 24.7257C135.323 24.7257 137.105 25.1283 138.672 25.9219C140.243 26.7155 141.642 27.928 142.834 29.5245L143.681 30.6582V12.0439H145.879V48.2406H143.681V43.3423L142.852 44.3118C141.571 45.8157 140.115 46.9611 138.521 47.7154C136.936 48.4697 135.175 48.8514 133.292 48.8514L133.294 48.8537ZM133.389 26.778C131.591 26.778 129.907 27.2222 128.384 28.0969C126.86 28.9715 125.631 30.2163 124.733 31.7966C123.836 33.3723 123.382 35.0659 123.382 36.8244C123.382 38.5829 123.843 40.265 124.745 41.8546C125.652 43.4464 126.885 44.7051 128.415 45.5936C129.944 46.4844 131.612 46.9333 133.368 46.9333C135.124 46.9333 136.83 46.4891 138.412 45.6098C139.997 44.7283 141.233 43.5159 142.089 42.0073C142.943 40.5033 143.375 38.7888 143.375 36.9123C143.375 34.0502 142.404 31.6207 140.492 29.691C138.577 27.7614 136.187 26.7803 133.391 26.7803L133.389 26.778Z" fill="#333333"/>
<path d="M66.3683 56.3341L63.6658 62.8821H63.2447L60.5422 56.3341H60.9171C60.961 56.3341 60.9957 56.3457 61.0235 56.3688C61.0513 56.3919 61.0721 56.422 61.0883 56.459L63.3188 61.8918C63.3442 61.9589 63.3674 62.0329 63.3928 62.1093C63.4183 62.1856 63.4414 62.2643 63.4622 62.3453C63.4807 62.2643 63.5015 62.1856 63.5224 62.1093C63.5432 62.0329 63.5687 61.9589 63.5964 61.8918L65.8223 56.459C65.8338 56.4243 65.857 56.3966 65.8871 56.3711C65.9171 56.3457 65.9542 56.3341 65.9981 56.3341H66.3683Z" fill="#333333"/>
<path d="M68.0435 62.8821H67.5669V56.3341H68.0435V62.8821Z" fill="#333333"/>
<path d="M73.268 57.13C73.2402 57.1833 73.2009 57.2087 73.1477 57.2087C73.1083 57.2087 73.0551 57.1809 72.9927 57.1231C72.9302 57.0653 72.8446 57.0028 72.7358 56.9334C72.6271 56.864 72.4929 56.7992 72.3309 56.7413C72.169 56.6835 71.97 56.6534 71.7317 56.6534C71.4933 56.6534 71.2851 56.6881 71.1046 56.7552C70.9241 56.8223 70.7737 56.9149 70.6511 57.0329C70.5285 57.1509 70.4359 57.2851 70.3735 57.4401C70.311 57.5951 70.2786 57.7571 70.2786 57.926C70.2786 58.1481 70.3249 58.3309 70.4197 58.4767C70.5146 58.6224 70.6372 58.7451 70.7923 58.8469C70.9473 58.9487 71.1208 59.0343 71.3175 59.1037C71.5142 59.1731 71.7155 59.2425 71.9214 59.3096C72.1273 59.3767 72.3286 59.4531 72.5253 59.5341C72.7219 59.615 72.8955 59.7192 73.0505 59.8418C73.2055 59.9644 73.3282 60.1171 73.423 60.2976C73.5179 60.4781 73.5642 60.7025 73.5642 60.9709C73.5642 61.2393 73.5179 61.5031 73.423 61.746C73.3282 61.989 73.1916 62.1995 73.0135 62.3777C72.8353 62.5558 72.6155 62.697 72.3564 62.8011C72.0972 62.9052 71.8011 62.9561 71.4679 62.9561C71.0352 62.9561 70.665 62.8798 70.3526 62.7271C70.0403 62.5744 69.7673 62.3661 69.5336 62.1L69.6631 61.8964C69.7002 61.8501 69.7441 61.827 69.7927 61.827C69.8205 61.827 69.8552 61.8455 69.8991 61.8825C69.9431 61.9196 69.994 61.9658 70.0565 62.019C70.119 62.0723 70.193 62.1324 70.2786 62.1949C70.3642 62.2574 70.466 62.3175 70.5794 62.3707C70.6928 62.424 70.8247 62.4702 70.9727 62.5072C71.1208 62.5443 71.2897 62.5628 71.4771 62.5628C71.7363 62.5628 71.9677 62.5234 72.1713 62.4448C72.3749 62.3661 72.5461 62.2597 72.6872 62.1232C72.8284 61.9866 72.9348 61.827 73.0089 61.6396C73.0829 61.4522 73.1199 61.2532 73.1199 61.0403C73.1199 60.8089 73.0736 60.6192 72.9788 60.4688C72.8839 60.3184 72.7613 60.1935 72.6063 60.094C72.4512 59.9945 72.2777 59.9089 72.081 59.8418C71.8844 59.7747 71.6831 59.7076 71.4771 59.6428C71.2712 59.578 71.0699 59.5063 70.8732 59.4253C70.6766 59.3443 70.503 59.2425 70.348 59.1176C70.193 58.9926 70.0704 58.8376 69.9755 58.6502C69.8806 58.4628 69.8344 58.2291 69.8344 57.9491C69.8344 57.7293 69.876 57.5187 69.9593 57.3151C70.0426 57.1115 70.1652 56.9311 70.3249 56.776C70.4845 56.621 70.6835 56.4961 70.9195 56.4012C71.1555 56.3063 71.4239 56.2601 71.727 56.2601C72.0672 56.2601 72.3703 56.3133 72.641 56.422C72.9117 56.5308 73.1569 56.695 73.3791 56.9172L73.268 57.13Z" fill="#333333"/>
<path d="M75.628 62.8821H75.1514V56.3341H75.628V62.8821Z" fill="#333333"/>
<path d="M79.5568 56.3341C79.9294 56.3341 80.2533 56.3711 80.5286 56.4452C80.804 56.5192 81.0307 56.6279 81.2089 56.7714C81.387 56.9149 81.5212 57.0907 81.6068 57.2966C81.6925 57.5026 81.7364 57.7386 81.7364 58C81.7364 58.1736 81.7063 58.3401 81.6462 58.4998C81.586 58.6594 81.5004 58.8075 81.387 58.944C81.2737 59.0805 81.1348 59.1985 80.9706 59.298C80.8063 59.3975 80.6166 59.4739 80.4037 59.5271C80.9197 59.6012 81.3153 59.7724 81.5906 60.0385C81.866 60.3045 82.0048 60.6562 82.0048 61.0912C82.0048 61.3689 81.9562 61.6188 81.8567 61.8409C81.7572 62.063 81.6138 62.2504 81.4264 62.4054C81.239 62.5605 81.0076 62.6785 80.7322 62.7594C80.4569 62.8404 80.1468 62.8821 79.7975 62.8821H77.6734V56.3341H79.5568ZM78.1501 56.7089V59.3975H79.5661C79.8692 59.3975 80.126 59.3582 80.3412 59.2818C80.5564 59.2055 80.7322 59.1037 80.8687 58.9764C81.0053 58.8492 81.1071 58.7057 81.1719 58.5461C81.2366 58.3864 81.269 58.2198 81.269 58.0509C81.269 57.609 81.1302 57.2758 80.8502 57.0491C80.5703 56.8223 80.1399 56.7089 79.5568 56.7089H78.1501ZM79.7928 62.5026C80.3667 62.5026 80.8016 62.3777 81.0955 62.1301C81.3893 61.8825 81.5374 61.5331 81.5374 61.082C81.5374 60.876 81.4981 60.6886 81.4194 60.5243C81.3408 60.3601 81.2274 60.2189 81.0793 60.1032C80.9312 59.9875 80.7484 59.8996 80.5333 59.8372C80.3181 59.7747 80.0728 59.7446 79.7975 59.7446H78.1501V62.5026H79.7928Z" fill="#333333"/>
<path d="M84.1103 62.8821H83.6337V56.3341H84.1103V62.8821Z" fill="#333333"/>
<path d="M89.7328 62.4795V62.8821H86.1557V56.3341H86.6324V62.4795H89.7328Z" fill="#333333"/>
<path d="M91.4265 62.8821H90.9499V56.3341H91.4265V62.8821Z" fill="#333333"/>
<path d="M97.7292 56.7367H95.4293V62.8821H94.9527V56.7367H92.6389V56.3341H97.7292V56.7367Z" fill="#333333"/>
<path d="M102.875 62.4887L102.866 62.8821H98.9417V56.3341H102.866V56.7274H99.4183V59.3744H102.287V59.7585H99.4183V62.4887H102.875ZM102.463 54.3628L100.945 55.6909C100.918 55.7163 100.89 55.7302 100.862 55.7371C100.834 55.7441 100.802 55.7464 100.765 55.7464H100.464L101.658 54.4646C101.695 54.4206 101.732 54.3928 101.771 54.3813C101.811 54.3697 101.866 54.3628 101.94 54.3628H102.463Z" fill="#333333"/>
<path d="M112.561 59.6058C112.561 60.1125 112.484 60.566 112.334 60.9709C112.183 61.3758 111.971 61.7183 111.695 62.0028C111.42 62.2874 111.091 62.5049 110.707 62.6553C110.323 62.8057 109.9 62.8821 109.437 62.8821H107.044V56.3341H109.437C109.9 56.3341 110.323 56.4105 110.707 56.5608C111.091 56.7112 111.42 56.9287 111.695 57.2133C111.971 57.4979 112.183 57.8404 112.334 58.2453C112.484 58.6502 112.561 59.1037 112.561 59.6058ZM112.07 59.6058C112.07 59.15 112.008 58.7427 111.88 58.3841C111.753 58.0255 111.575 57.7247 111.343 57.4771C111.112 57.2295 110.834 57.0421 110.511 56.9125C110.187 56.783 109.828 56.7182 109.437 56.7182H107.521V62.498H109.437C109.828 62.498 110.187 62.4332 110.511 62.3036C110.834 62.1741 111.112 61.9867 111.343 61.7391C111.575 61.4915 111.753 61.1907 111.88 60.8321C112.008 60.4734 112.07 60.0662 112.07 59.6058Z" fill="#333333"/>
<path d="M114.666 62.8821H114.189V56.3341H114.666V62.8821Z" fill="#333333"/>
<path d="M121.941 59.9112V62.2388C121.614 62.4702 121.265 62.6484 120.895 62.771C120.525 62.8937 120.108 62.9561 119.645 62.9561C119.127 62.9561 118.662 62.8775 118.248 62.7178C117.834 62.5582 117.482 62.3337 117.19 62.0422C116.899 61.7506 116.674 61.399 116.519 60.9848C116.364 60.5706 116.286 60.1125 116.286 59.6058C116.286 59.0991 116.362 58.6409 116.515 58.2291C116.667 57.8172 116.887 57.4655 117.172 57.174C117.456 56.8825 117.801 56.658 118.206 56.4984C118.611 56.3387 119.065 56.2601 119.571 56.2601C119.821 56.2601 120.053 56.2763 120.263 56.311C120.474 56.3457 120.67 56.3943 120.853 56.4614C121.036 56.5285 121.205 56.6094 121.362 56.7066C121.519 56.8038 121.67 56.9149 121.816 57.0421L121.686 57.2457C121.642 57.3198 121.577 57.336 121.492 57.2966C121.445 57.2781 121.378 57.2342 121.293 57.1671C121.207 57.1 121.087 57.0282 120.936 56.9542C120.786 56.8801 120.599 56.813 120.374 56.7552C120.15 56.6974 119.879 56.6673 119.557 56.6673C119.132 56.6673 118.748 56.7344 118.403 56.8709C118.058 57.0074 117.767 57.2018 117.524 57.454C117.281 57.7062 117.096 58.0162 116.964 58.3795C116.832 58.7427 116.767 59.1523 116.767 59.6058C116.767 60.0593 116.832 60.4781 116.964 60.846C117.096 61.2138 117.285 61.5239 117.533 61.7807C117.78 62.0376 118.084 62.2319 118.438 62.3684C118.792 62.5049 119.192 62.572 119.636 62.572C119.83 62.572 120.011 62.5605 120.175 62.535C120.339 62.5096 120.497 62.4749 120.647 62.4309C120.798 62.3869 120.941 62.3314 121.082 62.2643C121.223 62.1972 121.364 62.1232 121.51 62.0399V60.2768H120.256C120.221 60.2768 120.194 60.2652 120.171 60.2444C120.147 60.2236 120.136 60.1981 120.136 60.1703V59.9112H121.941Z" fill="#333333"/>
<path d="M124.102 62.8821H123.625V56.3341H124.102V62.8821Z" fill="#333333"/>
<path d="M130.404 56.7367H128.104V62.8821H127.628V56.7367H125.314V56.3341H130.404V56.7367Z" fill="#333333"/>
<path d="M135.953 62.8821H135.587C135.543 62.8821 135.509 62.8705 135.481 62.8474C135.453 62.8242 135.432 62.7942 135.416 62.7571L134.648 60.8552H131.432L130.664 62.7571C130.652 62.7918 130.629 62.8196 130.599 62.8451C130.569 62.8705 130.532 62.8821 130.488 62.8821H130.127L132.806 56.3341H133.273L135.953 62.8821ZM134.504 60.5035L133.172 57.1948C133.125 57.0861 133.081 56.9565 133.037 56.8061C133.019 56.8801 132.998 56.9496 132.977 57.0167C132.956 57.0838 132.933 57.1439 132.908 57.1994L131.575 60.5035H134.504Z" fill="#333333"/>
<path d="M140.728 62.4795V62.8821H137.151V56.3341H137.628V62.4795H140.728Z" fill="#333333"/>
<path d="M145.879 62.4887L145.87 62.8821H141.945V56.3341H145.87V56.7274H142.422V59.3744H145.291V59.7585H142.422V62.4887H145.879Z" fill="#333333"/>
<path d="M237 37.5C237 57.9353 220.433 74.4996 200 74.4996C179.567 74.4996 163.001 57.9329 163.001 37.5C163.001 17.0671 179.565 0.50042 200 0.50042C220.436 0.50042 237 17.0647 237 37.5Z" fill="#712B86"/>
<path d="M180.697 26.1324C182.226 26.1324 183.471 24.8876 183.471 23.3559C183.471 21.8242 182.226 20.5817 180.697 20.5817C179.167 20.5817 177.918 21.8265 177.918 23.3559C177.918 24.8853 179.163 26.1324 180.697 26.1324Z" fill="white"/>
<path d="M222.083 23.4485C222.078 21.919 220.834 20.6765 219.307 20.6765C217.779 20.6765 216.532 21.9214 216.528 23.4554V41.0285L216.521 44.3025C216.521 45.8065 216.107 46.5677 215.29 46.5677C214.755 46.5677 214.242 46.2623 214.239 46.26L187.515 29.7419C187.437 29.691 185.539 28.4832 183.32 28.4832C182.411 28.4832 181.573 28.6892 180.833 29.0987C177.8 30.7716 177.913 33.9715 177.92 34.0964V50.515C177.922 52.0444 179.167 53.2846 180.697 53.2846C182.226 53.2846 183.468 52.0421 183.473 50.5057V40.457L183.478 37.4607C183.478 35.9567 183.892 35.1955 184.709 35.1955C185.243 35.1955 185.761 35.5032 185.761 35.5032L212.486 52.0236C212.564 52.0745 214.464 53.2823 216.678 53.2823C217.59 53.2823 218.425 53.0763 219.168 52.6668C222.201 50.9963 222.085 47.794 222.081 47.6737V23.4485H222.083Z" fill="white"/>
</g>
<defs>
<clipPath id="clip0_1_164">
<rect width="237" height="73.9992" fill="white" transform="translate(0 0.50042)"/>
</clipPath>
</defs>
</svg>
